<?xml version="1.0" encoding="UTF-8"?>
<!DOCTYPE svg PUBLIC "-//W3C//DTD SVG 1.1//EN" "http://www.w3.org/Graphics/SVG/1.1/DTD/svg11.dtd">
<!-- Creator: CorelDRAW -->
<svg xmlns="http://www.w3.org/2000/svg" xml:space="preserve" width="8.5in" height="11in" version="1.1" style="shape-rendering:geometricPrecision; text-rendering:geometricPrecision; image-rendering:optimizeQuality; fill-rule:evenodd; clip-rule:evenodd"
viewBox="0 0 8500 11000"
 xmlns:xlink="http://www.w3.org/1999/xlink"
 xmlns:xodm="http://www.corel.com/coreldraw/odm/2003">
 <defs>
  <style type="text/css">
   <![CDATA[
    .fil0 {fill:#06182C}
   ]]>
  </style>
 </defs>
 <g id="Layer_x0020_1">
  <metadata id="CorelCorpID_0Corel-Layer"/>
  <image x="1054.46" y="3457.61" width="3413.33" height="3413.33" xlink:href="domba_Images\domba_ImgID1.png"/>
  <path class="fil0" d="M-2298.78 4637.65c10.55,-7.15 5.22,-11.33 14.38,-20.58 20.95,18.32 3.45,38.24 -14.38,20.58zm294.56 326.08c73.97,-0.95 257.19,-22.93 321.2,7.97 95.93,46.3 101.17,101.35 166.45,120.31 115.06,33.41 90.3,-7.61 115.63,-65.43 40.68,-92.87 14.22,-54.42 69.08,-71.12 22.85,-6.96 11.42,-33.29 -0.66,-64.29 -12.17,-31.24 -24.37,-53.66 -44.15,-74.22 -85.65,-89.05 -239.49,-65.85 -370.93,-66.8 -105.23,-0.76 -189,-6.39 -263.93,-53.24 -17.56,-10.98 -37.05,-26.51 -47.15,-42.36l-18.97 -30.15c-2.36,-4.28 -4.25,-7.97 -7.39,-14.07 -7.38,-14.36 -20.79,-43.75 -13.26,-60.58 10.42,-23.28 39.39,-25.89 40.01,-36.74 -6.54,-6.65 2.6,-4.39 -15.91,-5.41 -59.88,-3.29 -84.31,32.29 -103.65,36.37 -1.64,-17.94 -0.75,-21.37 7.67,-36.37 0.39,-0.69 0.88,-1.52 1.27,-2.22 12.43,-22.11 25.88,-38.39 57.32,-49.58 25.21,-8.97 38.77,-11.04 71.5,0.43 51.07,17.91 104.08,64.73 79.06,124.29 -6.83,16.28 -50.22,56.17 -95.6,21.75 -6.28,8.35 -2.63,10.84 4.72,18.64 39.81,42.25 86.53,37.13 126.52,4.37 7.87,-6.44 11.23,-11.7 17.34,-19.1 8.47,-10.25 7.63,-9.53 14.09,-23.07 63.49,-133.14 -51.23,-221.03 -150.67,-239.65 -91.59,-17.15 -147.65,4.44 -203.96,75.19 -41.93,52.68 -16.67,54.65 -32.63,110.63 -6.68,23.43 -76.93,100.37 -113.24,174.05 -11.08,22.48 -43.62,75.81 -39.28,102.4 2.02,12.39 7.37,13.44 10.57,22.8 4.69,13.69 -2.73,17.74 8.24,28.41 13.07,12.71 57.94,17.3 85.41,4.21l10.47 -6.52c2.51,-1.85 6.94,-5.62 11.17,-8.55 16.33,-11.3 34.84,-15.83 58.04,-10.19 59.74,14.54 115.15,91.55 151.14,136.45 20.48,25.56 68.39,37.39 93.27,-6.52 0.24,-0.42 0.77,-1.4 1.17,-2.09z"/>
  <path class="fil0" d="M-886.68 5215.43c-5.52,-31.3 -4.23,-178.94 3.78,-204.26 34.63,-8.91 89.2,-2.68 113.61,14.42l5.28 4.09c3.69,3.33 4.67,4.7 7.7,8.69 5.91,7.78 8.84,13.02 12.31,21.56 21.56,53.11 11.95,116.38 -29.01,140.75 -22.7,13.51 -85.73,24.72 -113.68,14.75zm-152.96 -218.15c10.49,-2.39 19.06,-0.54 27.86,4.78 6.83,4.13 13.28,11.54 15.8,19.44 5.07,15.86 2.67,50.07 2.67,68.19l0.07 280c0.05,21.54 3.15,46.37 -5.72,65.24 -12.5,26.59 -34.09,16.89 -41.69,31.43l0.73 15.26 197.01 -0.17 1.24 -20.76c-47.83,-11.77 -46.11,-25.45 -46.05,-77.67 0.03,-20.95 -7.77,-117.39 6.75,-122.69l23.13 -2.96c21.94,1.04 27.83,19.84 49.45,57.58l78.91 130.05c3.58,5.71 9.39,13.69 13.76,20.15 5.88,8.72 6.37,13.83 18.88,15.82 22.22,3.54 114.99,1.77 140.75,0.19l2.03 -21.07c-38.09,-9.89 -68.29,-44.43 -82.5,-68.06l-102.86 -153.16 45.92 -21.48c20.31,-10.31 43.64,-31.01 53.32,-47.04 23.25,-38.5 19.08,-100.04 -11.73,-138.65 -47.26,-59.23 -94.87,-61.89 -189.02,-61.64 -66.33,0.17 -133.22,-0.94 -199.46,0.15l0.74 27.06z"/>
  <path class="fil0" d="M-1866.09 5434.56c-7.3,-21.45 -6.72,-177.09 -0.96,-194.24 63.6,-15.72 163.37,5.35 157.96,101.85 -5.14,91.65 -96.76,111.69 -157,92.39zm-3.07 -239.65c-2.74,-12.65 -4.54,-149.35 -0.46,-160.65 6.13,-16.98 39.81,-17.63 60.02,-15.94 96.79,8.1 90.89,107.16 63.1,142.32 -21.55,27.26 -75.81,43.56 -122.66,34.27zm148.56 14.77c21.5,-14.74 126.37,-49.89 87.45,-150.75 -7.52,-19.48 -29.83,-43.06 -43.76,-52.51 -68.58,-46.54 -274.45,-30.24 -298.44,-15.94 -4.77,22.04 -1.98,336.31 -1.81,385.87 0.14,40.32 1.71,79.33 -43.18,82.55l1.31 22.19c65.23,3.66 138.02,-0.61 204.78,0.77 38.07,0.78 57.98,1.33 93.24,-9 10.22,-3 11.37,-3.11 20.15,-6.87l34.98 -17.81c12.79,-7.03 44.5,-37.38 51.08,-45.46 54.48,-66.81 1.63,-154.93 -68.5,-179.94 -10.88,-3.88 -28.68,-5.88 -37.29,-13.1z"/>
  <path class="fil0" d="M-2391.58 5266.87c1.49,-15.78 7.82,-30.63 13.38,-44.34 12.77,-31.51 36.31,-100.74 50.32,-112.49 10.37,17.89 61.05,129.83 55.03,154.11 -18.3,6.41 -93.96,4.35 -118.73,2.72zm-15.13 193.95c-23.06,-3.95 -40.3,-1.53 -44.15,-24.87 -3.22,-19.51 4.77,-38.2 11.36,-54.49 23.44,-57.93 16.74,-75.33 55.24,-75.33 159.32,0.03 128.88,-17.66 162.81,80.84 20.95,60.83 10.93,65.06 -31.11,73.77l1.1 22.81c17.55,-5.97 177.04,-2.96 203.31,0.54l4.23 -21.72c-31.55,-12.11 -41.74,-17 -52.66,-39.57l-62.87 -160.6c-4.1,-10.06 -8.14,-21 -12.2,-31.82 -1.21,-3.24 -2.11,-5.9 -3.46,-9.35l-10.99 -28.89c-4.19,-10.68 2.1,5.32 -1.95,-4.72l-8.59 -22.22c-8.31,-22.12 -16.2,-43.44 -24.66,-65.25l-12.89 -33.5c-4.09,-10.52 -7.98,-20.65 -11.87,-31.73 -3.75,-10.68 -7.83,-21.11 -11.78,-31.58l-11.91 -31.29c-12.69,-2.38 -26.78,3.09 -39.89,6.02 -18.45,4.13 -21.87,2.17 -28.71,20.95 -39.37,108.03 -102.98,241.77 -143.63,350.02 -7.26,19.32 -19.15,52.63 -29.2,71.34 -23.02,42.88 -36.78,33.49 -54.27,42.85l1.36 20.04c35.83,-3.26 115.73,-2.58 156.97,0.42 -3.7,-13 -4.54,-10.17 0.4,-22.67z"/>
  <path class="fil0" d="M-1417.51 5266.81c0.89,-14.3 8.45,-30.92 13.54,-43.41 9.3,-22.84 40.86,-102.65 49.72,-112.59 14.8,16.23 62.53,130.03 57.34,152.88 -18.93,6.97 -96.02,6.44 -120.59,3.12zm-57.14 178c-5.1,-34.64 17.41,-87.52 29.87,-115.65 10.32,-23.31 21.84,-23.26 50.48,-23.07 140.24,0.91 114.93,-17.44 144.95,68.81 14.04,40.32 35.06,81.59 -25.26,84.31l1.73 22.23 198.63 0.31 0.87 -18.75c-29.96,-18.19 -33.59,-8.81 -49.52,-41.7l-142.88 -372.91c-1.74,-4.5 -3.9,-9.19 -5.91,-14.57 -7.19,-19.25 -14.78,-45.03 -23.24,-63.37 -22.75,2.51 -58.55,4.65 -68.72,29.59l-142.29 347.74c-9.58,23.71 -18.73,47.62 -29.77,70.69 -20.11,42.01 -33.19,33.57 -52.4,44.54l1.48 18.56 153.28 -1.17 0.59 -19.34c-27.63,-7.86 -18.39,-0.81 -41.89,-16.28z"/>
  <path class="fil0" d="M-2918.81 5491.1c18.57,-4.76 13,-16.45 34.84,-17.99 15.88,-1.12 69.64,18.58 116.99,21.76 42.95,2.87 99.11,-6.35 135.86,-28.79 0.65,-0.4 1.46,-0.92 2.09,-1.33 42.57,-28.13 75,-87.34 68.96,-138.5 -13.45,-113.97 -143.59,-135.06 -207.34,-192.28 -14.75,-13.24 -22.94,-15.96 -36.32,-34.83 -68.56,-96.65 69.95,-154.43 150.26,-80.29 8.48,7.82 14.85,18.94 19.91,27.31 27.18,44.97 12.51,55.38 36.38,56.65l1.28 -131.39c-38.05,-7.81 14.17,18.39 -76.84,-8.72 -177.44,-52.85 -276.37,90.61 -224.2,190.66 5.99,11.49 12.34,18 19.51,26.63 5.46,6.59 6.39,8.6 11.24,13.02l159.15 97.02c59.84,40.15 74.33,108.86 22.5,149.21 -49.77,38.75 -144.66,14.52 -191.9,-53.44l-24.32 -44.69c-8.97,-17.55 6.28,-7.94 -13.48,-13.04 -6.16,7.93 -2.23,-1.26 -4.8,11.58l0.24 151.44z"/>
 </g>
</svg>
